ply
format ascii 1.0
comment VCGLIB generated
element vertex 291
property float x
property float y
property float z
property uchar red
property uchar green
property uchar blue
property uchar alpha
element face 578
property list uchar int vertex_indices
end_header
0.506166 -0.108369 0 192 192 192 255 
0.508478 -0.050124 0.089523 192 192 192 255 
0.500001 -0.03003 0 192 192 192 255 
0.524511 -0.184776 0 192 192 192 255 
0.506166 0.048308 0 192 192 192 255 
0.554582 -0.257376 0 192 192 192 255 
0.539985 -0.18236 0.123463 192 192 192 255 
0.510707 -0.128552 0.030024 192 192 192 255 
0.548122 -0.140133 0.183734 192 192 192 255 
0.541414 -0.050382 0.198361 192 192 192 255 
0.54763 0.024341 0.206103 192 192 192 255 
0.525143 0.030636 0.144461 192 192 192 255 
0.505249 0.009884 0.060298 192 192 192 255 
0.52865 0.125605 0.060418 192 192 192 255 
0.53812 0.161608 0 192 192 192 255 
0.564925 0.214592 0.031141 192 192 192 255 
0.573794 0.231623 0 192 192 192 255 
0.646674 -0.38413 0 192 192 192 255 
0.706427 -0.435163 0 192 192 192 255 
0.694386 -0.415142 0.092676 192 192 192 255 
0.639174 -0.363067 0.095422 192 192 192 255 
0.59564 -0.324377 0 192 192 192 255 
0.592279 -0.303333 0.095976 192 192 192 255 
0.554779 -0.237312 0.094321 192 192 192 255 
0.588454 -0.283341 0.128841 192 192 192 255 
0.570246 -0.229598 0.159974 192 192 192 255 
0.628711 -0.323118 0.162611 192 192 192 255 
0.594712 -0.216085 0.226429 192 192 192 255 
0.588828 -0.160176 0.253251 192 192 192 255 
0.66318 -0.253402 0.294802 192 192 192 255 
0.611207 -0.161278 0.285981 192 192 192 255 
0.586168 -0.096317 0.272914 192 192 192 255 
0.569425 -0.03003 0.254385 192 192 192 255 
0.608642 -0.03003 0.311458 192 192 192 255 
0.631688 0.036888 0.331769 192 192 192 255 
0.611207 0.101217 0.285981 192 192 192 255 
0.673469 0.070032 0.365559 192 192 192 255 
0.636619 0.191744 0.262643 192 192 192 255 
0.594712 0.156024 0.226429 192 192 192 255 
0.674129 0.272889 0.228728 192 192 192 255 
0.628711 0.263057 0.162611 192 192 192 255 
0.588454 0.22328 0.128841 192 192 192 255 
0.639174 0.303006 0.095422 192 192 192 255 
0.592279 0.243274 0.095976 192 192 192 255 
0.619983 0.295196 0 192 192 192 255 
0.675548 0.350759 0 192 192 192 255 
0.773428 -0.476222 0 192 192 192 255 
0.846027 -0.506293 0 192 192 192 255 
0.809689 -0.488968 0.060298 192 192 192 255 
0.738623 -0.452638 0.058766 192 192 192 255 
0.786205 -0.445918 0.178243 192 192 192 255 
0.734134 -0.424995 0.15388 192 192 192 255 
0.677932 -0.377816 0.159974 192 192 192 255 
0.65032 -0.32933 0.195895 192 192 192 255 
0.698345 -0.358724 0.226429 192 192 192 255 
0.684011 -0.282074 0.294802 192 192 192 255 
0.652822 -0.193703 0.320803 192 192 192 255 
0.722701 -0.254829 0.350591 192 192 192 255 
0.701047 -0.225026 0.350591 192 192 192 255 
0.662713 -0.162417 0.34491 192 192 192 255 
0.691364 -0.162572 0.370772 192 192 192 255 
0.657404 -0.097051 0.3583 192 192 192 255 
0.696658 -0.0636 0.396434 192 192 192 255 
0.655358 -0.03003 0.362577 192 192 192 255 
0.696658 0.003539 0.396434 192 192 192 255 
0.767584 -0.03003 0.443166 192 192 192 255 
0.744228 0.036775 0.424845 192 192 192 255 
0.721619 0.102467 0.394071 192 192 192 255 
0.732235 0.165073 0.374959 192 192 192 255 
0.798454 0.16451 0.414722 192 192 192 255 
0.813414 0.222845 0.389518 192 192 192 255 
0.74586 0.223358 0.348693 192 192 192 255 
0.804468 0.250335 0.365559 192 192 192 255 
0.762508 0.276189 0.316596 192 192 192 255 
0.830926 0.275824 0.3583 192 192 192 255 
0.838137 0.362986 0.26431 192 192 192 255 
0.776387 0.342907 0.247672 192 192 192 255 
0.839467 0.400559 0.198361 192 192 192 255 
0.786205 0.385856 0.178243 192 192 192 255 
0.889241 0.4438 0.117554 192 192 192 255 
0.829537 0.431962 0.089523 192 192 192 255 
0.846027 0.446232 0 192 192 192 255 
0.773428 0.41616 0 192 192 192 255 
0.756644 0.398298 0.087796 192 192 192 255 
0.706427 0.375102 0 192 192 192 255 
0.706862 0.370893 0.060418 192 192 192 255 
0.684669 0.337371 0.125962 192 192 192 255 
0.727437 0.344961 0.188263 192 192 192 255 
0.674368 0.296245 0.194363 192 192 192 255 
0.724211 0.298479 0.25762 192 192 192 255 
0.706429 0.249423 0.293328 192 192 192 255 
0.922435 -0.524637 0 192 192 192 255 
0.885608 -0.513635 0.060298 192 192 192 255 
0.964455 -0.526015 0.058766 192 192 192 255 
0.947769 -0.504994 0.149576 192 192 192 255 
0.855484 -0.477183 0.172391 192 192 192 255 
0.895491 -0.460618 0.232987 192 192 192 255 
0.832854 -0.440267 0.232987 192 192 192 255 
0.776387 -0.402969 0.247672 192 192 192 255 
0.844182 -0.403795 0.294196 192 192 192 255 
0.788674 -0.360529 0.310737 192 192 192 255 
0.866336 -0.335036 0.373727 192 192 192 255 
0.796185 -0.336333 0.339258 192 192 192 255 
0.779104 -0.283338 0.370772 192 192 192 255 
0.798454 -0.22457 0.414722 192 192 192 255 
0.848448 -0.282217 0.404935 192 192 192 255 
0.867868 -0.223421 0.44239 192 192 192 255 
0.830558 -0.129188 0.4604 192 192 192 255 
0.753236 -0.162332 0.414722 192 192 192 255 
0.775776 -0.096668 0.44239 192 192 192 255 
0.886607 -0.063104 0.486463 192 192 192 255 
0.830949 -0.03003 0.471097 192 192 192 255 
0.920862 0.002978 0.493253 192 192 192 255 
0.875628 0.036057 0.480359 192 192 192 255 
0.830558 0.069128 0.4604 192 192 192 255 
0.888583 0.100817 0.470175 192 192 192 255 
0.832899 0.163976 0.430061 192 192 192 255 
0.893313 0.192545 0.435529 192 192 192 255 
0.874869 0.248827 0.396434 192 192 192 255 
0.930257 0.295745 0.373727 192 192 192 255 
0.886542 0.321534 0.337826 192 192 192 255 
0.907765 0.364395 0.294196 192 192 192 255 
0.958405 0.317243 0.3583 192 192 192 255 
1.00522 0.381026 0.285981 192 192 192 255 
1.05806 0.324799 0.348693 192 192 192 255 
1.1426 0.349114 0.294802 192 192 192 255 
1.08698 0.407034 0.228728 192 192 192 255 
1.18793 0.374233 0.228728 192 192 192 255 
1.16454 0.41439 0.162611 192 192 192 255 
1.2196 0.401903 0.12776 192 192 192 255 
1.2636 0.366118 0.157353 192 192 192 255 
1.22541 0.413123 0.062644 192 192 192 255 
1.32169 0.349881 0.058766 192 192 192 255 
1.22812 0.41616 0 192 192 192 255 
1.326 0.350759 0 192 192 192 255 
1.38156 0.295196 0 192 192 192 255 
1.44696 -0.257376 0 192 192 192 255 
1.47704 -0.184776 0 192 192 192 255 
1.46126 -0.21784 0.058766 192 192 192 255 
1.45115 -0.212985 0.120271 192 192 192 255 
1.42512 -0.289001 0.060298 192 192 192 255 
1.40591 -0.324377 0 192 192 192 255 
1.3782 -0.353583 0.060298 192 192 192 255 
1.326 -0.41082 0 192 192 192 255 
1.26243 -0.457009 0 192 192 192 255 
1.29125 -0.433448 0.060418 192 192 192 255 
1.22541 -0.473184 0.062644 192 192 192 255 
1.2096 -0.484118 0.031141 192 192 192 255 
1.15552 -0.506293 0 192 192 192 255 
1.07911 0.464577 0 192 192 192 255 
1.15552 0.446232 0 192 192 192 255 
1.13658 0.450954 0.031331 192 192 192 255 
1.13447 0.442927 0.095976 192 192 192 255 
1.04133 0.465268 0.061713 192 192 192 255 
1.07763 0.448032 0.12776 192 192 192 255 
1.07306 0.42579 0.194363 192 192 192 255 
1.02099 0.444947 0.157353 192 192 192 255 
1.00326 0.455278 0.123463 192 192 192 255 
0.965609 0.434491 0.183734 192 192 192 255 
0.963098 0.403573 0.247672 192 192 192 255 
0.895491 0.400559 0.232987 192 192 192 255 
0.961483 0.4692 0 192 192 192 255 
1.07911 -0.524637 0 192 192 192 255 
1.13447 -0.502986 0.095976 192 192 192 255 
1.06009 -0.518249 0.094321 192 192 192 255 
1.00077 -0.530802 0 192 192 192 255 
1.04055 -0.513066 0.125962 192 192 192 255 
1.07306 -0.485849 0.194363 192 192 192 255 
1.00149 -0.494066 0.188263 192 192 192 255 
0.963098 -0.463634 0.247672 192 192 192 255 
1.03142 -0.458359 0.25762 192 192 192 255 
0.986248 -0.398088 0.339258 192 192 192 255 
0.914748 -0.403359 0.322488 192 192 192 255 
0.930257 -0.355806 0.373727 192 192 192 255 
0.947611 -0.302068 0.417063 192 192 192 255 
0.985034 -0.294663 0.424845 192 192 192 255 
0.9665 -0.243372 0.451757 192 192 192 255 
0.923522 -0.160506 0.477264 192 192 192 255 
0.986579 -0.180993 0.477264 192 192 192 255 
0.979425 -0.095732 0.495985 192 192 192 255 
0.910028 -0.095959 0.488048 192 192 192 255 
0.96615 -0.03003 0.499573 192 192 192 255 
0.990074 -0.062961 0.499573 192 192 192 255 
1.05666 0.010575 0.495985 192 192 192 255 
0.996947 0.088768 0.486463 192 192 192 255 
1.05275 0.129946 0.471678 192 192 192 255 
0.9665 0.183311 0.451757 192 192 192 255 
0.913191 0.13196 0.465683 192 192 192 255 
1.05993 0.215048 0.432677 192 192 192 255 
1.00371 0.284675 0.389518 192 192 192 255 
1.0771 0.266369 0.396351 192 192 192 255 
1.15279 0.320853 0.323334 192 192 192 255 
1.12327 0.222502 0.414722 192 192 192 255 
1.18338 0.2263 0.389518 192 192 192 255 
1.21838 0.2912 0.316596 192 192 192 255 
1.21992 0.359167 0.226429 192 192 192 255 
1.30871 0.302623 0.212811 192 192 192 255 
1.33904 0.256439 0.232987 192 192 192 255 
1.34991 0.298616 0.144461 192 192 192 255 
1.41882 0.180309 0.178243 192 192 192 255 
1.41695 0.222464 0.117554 192 192 192 255 
1.46386 0.137703 0.090497 192 192 192 255 
1.46343 0.161608 0 192 192 192 255 
1.48771 0.086873 0 192 192 192 255 
1.5 -0.069321 0 192 192 192 255 
1.5 0.00926 0 192 192 192 255 
1.49605 0.008434 0.063205 192 192 192 255 
1.49605 -0.068495 0.063205 192 192 192 255 
1.47501 -0.161503 0.092676 192 192 192 255 
1.47919 -0.104668 0.12776 192 192 192 255 
1.45064 -0.137719 0.191814 192 192 192 255 
1.41882 -0.24037 0.178243 192 192 192 255 
1.38436 -0.283571 0.198361 192 192 192 255 
1.40002 -0.295046 0.145412 192 192 192 255 
1.33541 -0.340369 0.206103 192 192 192 255 
1.36951 -0.34781 0.117554 192 192 192 255 
1.3327 -0.394572 0.087796 192 192 192 255 
1.30226 -0.385167 0.183734 192 192 192 255 
1.25251 -0.444197 0.125962 192 192 192 255 
1.21022 -0.441285 0.194363 192 192 192 255 
1.18545 -0.477317 0.128841 192 192 192 255 
1.14312 -0.468133 0.196408 192 192 192 255 
1.16502 -0.423494 0.262643 192 192 192 255 
1.09916 -0.444893 0.262643 192 192 192 255 
1.11872 -0.39303 0.32418 192 192 192 255 
1.02221 -0.392454 0.34491 192 192 192 255 
1.00371 -0.344736 0.389518 192 192 192 255 
1.06747 -0.356398 0.373912 192 192 192 255 
1.08694 -0.295233 0.415952 192 192 192 255 
1.13865 -0.333269 0.373912 192 192 192 255 
1.18607 -0.366965 0.320803 192 192 192 255 
1.20675 -0.303366 0.365559 192 192 192 255 
1.15887 -0.2684 0.411044 192 192 192 255 
1.25927 -0.21784 0.38559 192 192 192 255 
1.16905 -0.234871 0.424845 192 192 192 255 
1.10713 -0.230224 0.446524 192 192 192 255 
1.04248 -0.222555 0.4604 192 192 192 255 
1.0737 -0.12389 0.486463 192 192 192 255 
1.13816 -0.129849 0.471097 192 192 192 255 
1.11148 -0.110464 0.481713 192 192 192 255 
1.08482 -0.050297 0.493253 192 192 192 255 
1.16898 -0.03003 0.471678 192 192 192 255 
1.11257 0.010319 0.486463 192 192 192 255 
1.19553 0.029331 0.457513 192 192 192 255 
1.27633 0.046673 0.411044 192 192 192 255 
1.22473 -0.03003 0.447903 192 192 192 255 
1.27962 -0.03003 0.415952 192 192 192 255 
1.25062 -0.088313 0.430061 192 192 192 255 
1.329 -0.104668 0.370772 192 192 192 255 
1.35594 -0.08519 0.348693 192 192 192 255 
1.31796 -0.177638 0.3583 192 192 192 255 
1.38508 -0.18686 0.28015 192 192 192 255 
1.41761 -0.133242 0.25762 192 192 192 255 
1.39056 -0.232019 0.240904 192 192 192 255 
1.44308 -0.083102 0.228728 192 192 192 255 
1.40519 -0.04775 0.294802 192 192 192 255 
1.44531 -0.01231 0.22988 192 192 192 255 
1.47405 -0.048451 0.162611 192 192 192 255 
1.47919 0.044607 0.12776 192 192 192 255 
1.47246 0.081404 0.125962 192 192 192 255 
1.44232 0.11268 0.188263 192 192 192 255 
1.43864 0.058126 0.226429 192 192 192 255 
1.40151 0.139792 0.247672 192 192 192 255 
1.39308 0.092769 0.285981 192 192 192 255 
1.40316 0.023042 0.293328 192 192 192 255 
1.35208 0.061574 0.34491 192 192 192 255 
1.33178 0.007392 0.373912 192 192 192 255 
1.29575 0.101442 0.382723 192 192 192 255 
1.21376 0.124716 0.425982 192 192 192 255 
1.28022 0.173 0.362577 192 192 192 255 
1.13341 0.189578 0.430061 192 192 192 255 
1.1539 0.122422 0.451757 192 192 192 255 
1.28981 0.221435 0.322488 192 192 192 255 
1.22886 0.259198 0.339258 192 192 192 255 
1.34715 0.180309 0.294196 192 192 192 255 
1.37775 0.203159 0.232987 192 192 192 255 
1.3387 0.132776 0.331769 192 192 192 255 
1.32925 -0.227212 0.322488 192 192 192 255 
1.28981 -0.281496 0.322488 192 192 192 255 
1.24955 -0.333878 0.310737 192 192 192 255 
1.28612 -0.358678 0.247672 192 192 192 255 
1.22774 -0.394572 0.25762 192 192 192 255 
1.27224 -0.144519 0.404935 192 192 192 255 
1.21376 -0.184776 0.425982 192 192 192 255 
1.19308 -0.128552 0.451757 192 192 192 255 
1.42775 0.231623 0 192 192 192 255 
1.38724 0.275588 0.089523 192 192 192 255 
1.29401 0.345609 0.15388 192 192 192 255 
0.554779 0.177252 0.094321 192 192 192 255 
0.559672 0.114049 0.188263 192 192 192 255 
0.576749 0.068129 0.247672 192 192 192 255 
3 0 1 2 
3 3 0 2 
3 3 2 4 
3 3 4 5 
3 5 6 3 
3 3 6 7 
3 6 8 7 
3 7 8 1 
3 8 9 1 
3 1 9 10 
3 1 10 11 
3 1 11 12 
3 12 11 13 
3 4 12 13 
3 4 13 14 
3 14 13 15 
3 14 15 16 
3 17 14 16 
3 17 16 18 
3 18 19 17 
3 19 20 17 
3 17 20 21 
3 20 22 21 
3 21 22 5 
3 5 14 21 
3 22 23 5 
3 22 24 23 
3 23 24 6 
3 24 25 6 
3 24 26 25 
3 25 26 27 
3 25 27 8 
3 27 28 8 
3 27 29 28 
3 29 30 28 
3 28 30 31 
3 28 31 32 
3 9 28 32 
3 31 33 32 
3 32 33 34 
3 35 32 34 
3 35 34 36 
3 35 36 37 
3 38 35 37 
3 38 37 39 
3 38 39 40 
3 41 38 40 
3 41 40 42 
3 43 41 42 
3 43 42 44 
3 16 43 44 
3 44 42 45 
3 46 44 45 
3 46 45 47 
3 47 48 46 
3 46 48 49 
3 46 49 18 
3 48 50 49 
3 49 50 19 
3 50 51 19 
3 19 51 52 
3 52 51 53 
3 52 53 26 
3 20 52 26 
3 53 51 54 
3 53 54 55 
3 53 55 29 
3 55 56 29 
3 55 57 56 
3 56 57 58 
3 56 58 59 
3 56 59 31 
3 59 58 60 
3 59 60 61 
3 59 61 33 
3 61 62 33 
3 33 62 63 
3 62 64 63 
3 34 63 64 
3 62 65 64 
3 64 65 66 
3 36 64 66 
3 36 66 67 
3 36 67 68 
3 68 67 69 
3 68 69 70 
3 71 68 70 
3 71 70 72 
3 73 71 72 
3 73 72 74 
3 73 74 75 
3 76 73 75 
3 76 75 77 
3 78 76 77 
3 78 77 79 
3 80 78 79 
3 80 79 81 
3 81 82 80 
3 82 83 80 
3 82 84 83 
3 84 85 83 
3 86 83 85 
3 45 86 85 
3 86 87 83 
3 83 87 78 
3 86 88 87 
3 88 89 87 
3 87 89 76 
3 88 39 89 
3 39 90 89 
3 90 73 89 
3 86 40 88 
3 45 85 84 
3 47 84 82 
3 47 82 91 
3 91 92 47 
3 91 93 92 
3 93 94 92 
3 92 94 95 
3 92 95 48 
3 94 96 95 
3 95 96 97 
3 95 97 50 
3 50 97 98 
3 97 99 98 
3 98 99 100 
3 98 100 54 
3 99 101 100 
3 100 101 102 
3 100 102 57 
3 102 103 57 
3 103 104 57 
3 103 105 104 
3 105 106 104 
3 104 106 107 
3 104 107 108 
3 58 104 108 
3 108 107 109 
3 108 109 60 
3 109 62 60 
3 107 110 109 
3 109 110 111 
3 109 111 65 
3 111 110 112 
3 111 112 113 
3 111 113 114 
3 66 111 114 
3 114 113 115 
3 69 114 115 
3 69 115 116 
3 116 115 117 
3 116 117 118 
3 70 116 118 
3 118 117 119 
3 118 119 120 
3 74 118 120 
3 121 120 119 
3 121 119 122 
3 123 121 122 
3 123 122 124 
3 123 124 125 
3 126 123 125 
3 126 125 127 
3 128 126 127 
3 129 128 127 
3 129 127 130 
3 131 129 130 
3 131 130 132 
3 133 131 132 
3 134 133 132 
3 134 132 135 
3 136 134 135 
3 136 135 137 
3 137 138 136 
3 136 138 139 
3 136 139 140 
3 136 140 141 
3 141 140 142 
3 141 142 143 
3 143 133 141 
3 144 133 143 
3 144 143 145 
3 144 145 146 
3 144 146 147 
3 144 147 148 
3 148 149 144 
3 144 149 150 
3 149 151 150 
3 150 151 131 
3 151 152 131 
3 153 152 151 
3 153 154 152 
3 152 154 128 
3 154 155 128 
3 156 155 154 
3 157 156 154 
3 157 158 156 
3 158 159 156 
3 158 160 159 
3 160 121 159 
3 77 121 160 
3 77 160 158 
3 79 158 157 
3 79 157 161 
3 161 157 153 
3 149 161 153 
3 156 159 155 
3 159 126 155 
3 157 154 153 
3 149 153 151 
3 148 161 149 
3 162 161 148 
3 148 163 162 
3 163 164 162 
3 162 164 165 
3 165 164 93 
3 164 166 93 
3 164 163 166 
3 163 167 166 
3 166 167 168 
3 166 168 94 
3 168 169 94 
3 168 170 169 
3 170 171 169 
3 169 171 172 
3 169 172 96 
3 172 171 173 
3 172 173 101 
3 101 173 174 
3 101 174 105 
3 173 175 174 
3 175 176 174 
3 174 176 106 
3 106 176 177 
3 176 178 177 
3 177 178 179 
3 177 179 180 
3 177 180 107 
3 180 179 181 
3 180 181 110 
3 179 182 181 
3 182 183 181 
3 184 181 183 
3 184 183 185 
3 185 186 184 
3 187 184 186 
3 117 187 186 
3 112 184 187 
3 115 112 187 
3 186 185 188 
3 189 186 188 
3 189 188 190 
3 124 189 190 
3 124 190 191 
3 191 190 192 
3 191 192 193 
3 191 193 194 
3 195 191 194 
3 196 195 194 
3 196 194 197 
3 198 196 197 
3 198 197 199 
3 200 198 199 
3 200 199 201 
3 202 200 201 
3 202 201 203 
3 204 202 203 
3 203 205 204 
3 205 206 204 
3 204 206 207 
3 204 207 137 
3 137 207 208 
3 207 209 208 
3 209 210 208 
3 208 210 139 
3 139 210 211 
3 211 212 139 
3 139 212 213 
3 213 212 214 
3 213 214 215 
3 142 213 215 
3 142 215 216 
3 215 214 216 
3 216 214 217 
3 218 216 217 
3 218 217 219 
3 218 219 220 
3 146 218 220 
3 220 219 221 
3 220 221 163 
3 147 220 163 
3 219 222 221 
3 221 222 223 
3 221 223 167 
3 167 223 170 
3 222 224 223 
3 223 224 225 
3 223 225 171 
3 225 226 171 
3 225 227 226 
3 227 175 226 
3 228 175 227 
3 229 228 227 
3 224 229 227 
3 230 229 224 
3 230 231 229 
3 231 232 229 
3 231 233 232 
3 233 234 232 
3 232 234 235 
3 232 235 228 
3 228 235 236 
3 235 237 236 
3 236 237 178 
3 234 237 235 
3 234 238 237 
3 238 239 237 
3 239 182 237 
3 240 182 239 
3 241 240 239 
3 242 240 241 
3 243 242 241 
3 244 243 241 
3 244 241 245 
3 246 244 245 
3 246 245 247 
3 246 247 248 
3 249 246 248 
3 249 248 250 
3 249 250 251 
3 252 249 251 
3 252 251 253 
3 210 252 253 
3 254 252 210 
3 254 255 252 
3 256 255 254 
3 257 256 254 
3 257 254 209 
3 258 256 257 
3 206 258 257 
3 203 258 206 
3 203 259 258 
3 259 260 258 
3 260 261 258 
3 260 262 261 
3 262 263 261 
3 261 263 264 
3 261 264 256 
3 263 265 264 
3 264 265 266 
3 264 266 255 
3 255 266 249 
3 265 244 266 
3 265 267 244 
3 267 268 244 
3 267 269 268 
3 269 270 268 
3 270 271 268 
3 268 271 243 
3 270 185 271 
3 193 270 269 
3 193 269 272 
3 273 193 272 
3 273 272 197 
3 197 272 274 
3 197 274 275 
3 275 274 262 
3 272 269 274 
3 274 269 276 
3 274 276 263 
3 276 269 267 
3 276 267 265 
3 263 276 265 
3 262 274 263 
3 275 262 260 
3 199 275 260 
3 199 260 259 
3 258 261 256 
3 256 264 255 
3 251 277 253 
3 253 277 214 
3 214 277 278 
3 214 278 279 
3 280 214 279 
3 280 279 281 
3 217 280 281 
3 281 279 230 
3 281 230 222 
3 279 278 231 
3 278 277 233 
3 250 233 277 
3 250 282 233 
3 282 283 233 
3 282 284 283 
3 284 238 283 
3 284 241 238 
3 247 284 282 
3 255 249 252 
3 251 250 277 
3 248 282 250 
3 266 246 249 
3 248 247 282 
3 247 245 284 
3 266 244 246 
3 245 241 284 
3 268 243 244 
3 243 271 242 
3 271 183 242 
3 242 183 240 
3 241 239 238 
3 234 283 238 
3 233 283 234 
3 278 233 231 
3 279 231 230 
3 229 232 228 
3 175 228 236 
3 224 227 225 
3 222 230 224 
3 219 281 222 
3 217 281 219 
3 145 216 218 
3 217 214 280 
3 212 253 214 
3 211 253 212 
3 210 253 211 
3 209 254 210 
3 207 257 209 
3 206 257 207 
3 205 203 206 
3 137 202 204 
3 137 285 202 
3 201 259 203 
3 285 200 202 
3 285 286 200 
3 135 286 285 
3 201 199 259 
3 286 198 200 
3 286 132 198 
3 132 287 198 
3 199 197 275 
3 287 196 198 
3 130 196 287 
3 194 273 197 
3 130 195 196 
3 125 191 195 
3 194 193 273 
3 192 270 193 
3 192 188 270 
3 190 188 192 
3 189 119 186 
3 188 185 270 
3 185 183 271 
3 112 181 184 
3 240 183 182 
3 237 182 179 
3 178 237 179 
3 236 178 176 
3 236 176 175 
3 226 175 173 
3 226 173 171 
3 170 223 171 
3 167 170 168 
3 163 221 167 
3 165 161 162 
3 165 81 161 
3 91 81 165 
3 148 147 163 
3 146 220 147 
3 145 218 146 
3 143 216 145 
3 144 150 133 
3 143 142 216 
3 140 213 142 
3 140 139 213 
3 138 208 139 
3 137 208 138 
3 137 135 285 
3 141 134 136 
3 132 286 135 
3 141 133 134 
3 150 131 133 
3 130 287 132 
3 131 152 129 
3 127 195 130 
3 152 128 129 
3 155 126 128 
3 127 125 195 
3 159 123 126 
3 125 124 191 
3 122 189 124 
3 159 121 123 
3 122 119 189 
3 75 120 121 
3 119 117 186 
3 115 187 117 
3 113 112 115 
3 110 181 112 
3 107 180 110 
3 106 177 107 
3 105 174 106 
3 102 105 103 
3 102 101 105 
3 172 101 99 
3 97 172 99 
3 96 172 97 
3 94 169 96 
3 93 166 94 
3 165 93 91 
3 91 82 81 
3 161 81 79 
3 83 78 80 
3 79 77 158 
3 87 76 78 
3 77 75 121 
3 89 73 76 
3 75 74 120 
3 72 118 74 
3 90 71 73 
3 72 70 118 
3 90 68 71 
3 37 68 90 
3 70 69 116 
3 67 114 69 
3 67 66 114 
3 66 65 111 
3 62 109 65 
3 61 60 62 
3 58 108 60 
3 57 104 58 
3 100 57 55 
3 54 100 55 
3 51 98 54 
3 50 98 51 
3 48 95 50 
3 47 92 48 
3 47 45 84 
3 18 44 46 
3 42 86 45 
3 15 41 43 
3 288 41 15 
3 288 289 41 
3 11 289 288 
3 42 40 86 
3 289 38 41 
3 289 290 38 
3 10 290 289 
3 10 32 290 
3 40 39 88 
3 39 37 90 
3 290 35 38 
3 37 36 68 
3 34 64 36 
3 290 32 35 
3 33 63 34 
3 31 59 33 
3 30 56 31 
3 29 56 30 
3 53 29 27 
3 26 53 27 
3 20 26 24 
3 22 20 24 
3 19 52 20 
3 18 49 19 
3 18 16 44 
3 21 14 17 
3 16 15 43 
3 13 288 15 
3 13 11 288 
3 11 10 289 
3 9 32 10 
3 8 28 9 
3 6 25 8 
3 5 23 6 
3 5 4 14 
3 2 12 4 
3 3 7 0 
3 2 1 12 
3 0 7 1 
